<svg width="354" height="65" viewBox="0 0 354 65" fill="none" xmlns="http://www.w3.org/2000/svg">
<path d="M45.4834 64.8633L43.0225 58.4912H23.9502L27.9932 46.9336H38.54L22.9395 6.54785H41.8799L65.127 64.8633H45.4834ZM0 64.8633L20.8301 9.18457L29.4434 32.3438L18.7646 64.8633H0ZM69.9609 12.3926V0H89.4287V12.3926H69.9609ZM69.9609 64.8633V18.1934H89.4287V64.8633H69.9609ZM98.9209 64.8633V0.395508H118.345V64.8633H98.9209ZM121.421 64.8633V53.9648H130.122V29.8389H121.421V23.9502L127.134 18.1934H137.769L149.458 29.8389V53.2178L137.769 64.8633H121.421ZM169.497 64.8633L157.852 53.2178V29.8389L169.497 18.1934H177.275V64.8633H169.497ZM180.352 46.1426V38.0127H190.591V29.8389H180.352V18.1934H196.831L208.477 29.8389V46.1426H180.352ZM180.352 64.8633V53.9648H206.455V59.0186L200.654 64.8633H180.352ZM216.431 64.8633V18.1934H235.854V64.8633H216.431ZM247.236 41.1768V29.8389H238.975V24.7412L245.479 18.1934H257.256L266.704 29.0918V41.1768H247.236ZM303.311 64.8633V29.8389H295.4V24.3457L301.509 18.1934H316.538L322.778 24.4336V64.8633H303.311ZM272.856 64.8633V18.1934H292.324V64.8633H272.856ZM333.765 64.8633V29.8389H325.854V24.4336L331.831 18.1934H343.696L353.188 27.7734V64.8633H333.765Z" fill="black"/>
</svg>
