<svg enable-background="new 0 0 512 512" height="200" viewBox="0 0 512 512" width="200" xmlns="http://www.w3.org/2000/svg"><g style="fill:#fff"><path d="m 209.43,222.584 c -14.592,0 -26.112,12.8 -26.112,28.416 0,15.616 11.776,28.416 26.112,28.416 14.592,0 26.112,-12.8 26.112,-28.416 0.256,-15.616 -11.52,-28.416 -26.112,-28.416 z m 93.44,0 c -14.592,0 -26.112,12.8 -26.112,28.416 0,15.616 11.776,28.416 26.112,28.416 14.592,0 26.112,-12.8 26.112,-28.416 0,-15.616 -11.52,-28.416 -26.112,-28.416 z"/><path d="M 427.52,0 H 84.48 C 55.552,0 32,23.552 32,52.736 v 346.112 c 0,29.184 23.552,52.736 52.48,52.736 h 290.304 l -13.568,-47.36 32.768,30.464 L 424.96,463.36 480,512 V 52.736 C 480,23.552 456.448,0 427.52,0 Z m -98.816,334.336 c 0,0 -9.216,-11.008 -16.896,-20.736 33.536,-9.472 46.336,-30.464 46.336,-30.464 -10.496,6.912 -20.48,11.776 -29.44,15.104 -12.8,5.376 -25.088,8.96 -37.12,11.008 -24.576,4.608 -47.104,3.328 -66.304,-0.256 -14.592,-2.816 -27.136,-6.912 -37.632,-11.008 -5.888,-2.304 -12.288,-5.12 -18.688,-8.704 -0.768,-0.512 -1.536,-0.768 -2.304,-1.28 -0.512,-0.256 -0.768,-0.512 -1.024,-0.768 -4.608,-2.56 -7.168,-4.352 -7.168,-4.352 0,0 12.288,20.48 44.8,30.208 -7.68,9.728 -17.152,21.248 -17.152,21.248 -56.576,-1.792 -78.08,-38.912 -78.08,-38.912 0,-82.432 36.864,-149.248 36.864,-149.248 36.864,-27.648 71.936,-26.88 71.936,-26.88 l 2.56,3.072 c -46.08,13.312 -67.328,33.536 -67.328,33.536 0,0 5.632,-3.072 15.104,-7.424 27.392,-12.032 49.152,-15.36 58.112,-16.128 1.536,-0.256 2.816,-0.512 4.352,-0.512 15.616,-2.048 33.28,-2.56 51.712,-0.512 24.32,2.816 50.432,9.984 77.056,24.576 0,0 -20.224,-19.2 -63.744,-32.512 l 3.584,-4.096 c 0,0 35.072,-0.768 71.936,26.88 0,0 36.864,66.816 36.864,149.248 0,0 -21.76,37.12 -78.336,38.912 z"/></g></svg>