<svg enable-background="new 0 0 512 512" height="512" viewBox="0 0 512 512" width="512" xmlns="http://www.w3.org/2000/svg"><g style="fill:#fff"><path d="M 256,0 C 114.61,0 0,114.61 0,256 c 0,113.1 73.345,209.05 175.07,242.91 12.81,2.35 17.48,-5.56 17.48,-12.35 0,-6.06 -0.22,-22.17 -0.35,-43.53 -71.21,15.46 -86.23,-34.32 -86.23,-34.32 -11.645,-29.58 -28.429,-37.45 -28.429,-37.45 -23.244,-15.88 1.76,-15.56 1.76,-15.56 25.699,1.8 39.209,26.38 39.209,26.38 22.84,39.12 59.92,27.82 74.51,21.27 2.32,-16.54 8.93,-27.82 16.25,-34.22 -56.84,-6.45 -116.611,-28.43 -116.611,-126.52 0,-27.94 9.981,-50.8 26.351,-68.7 -2.64,-6.47 -11.42,-32.5 2.5,-67.74 0,0 21.5,-6.889 70.41,26.24 20.41,-5.69 42.32,-8.52 64.09,-8.61 21.73,0.1 43.64,2.92 64.09,8.61 48.87,-33.129 70.32,-26.24 70.32,-26.24 13.97,35.24 5.19,61.27 2.55,67.74 16.41,17.9 26.32,40.76 26.32,68.7 0,98.35 -59.86,119.99 -116.89,126.32 9.19,7.91 17.38,23.53 17.38,47.41 0,34.22 -0.31,61.83 -0.31,70.22 0,6.85 4.6,14.82 17.6,12.32 C 438.72,464.96 512,369.08 512,256 512,114.61 397.37,0 255.98,0"/></g></svg>