<svg enable-background="new 0 0 512 512" height="512" viewBox="0 0 512 512" width="512" xmlns="http://www.w3.org/2000/svg"><g style="fill:#fff"><path d="m 160.768,460.8 c 193.1264,0 298.8032,-160.1536 298.8032,-298.8032 0,-4.5056 0,-9.0112 -0.2048,-13.5168 20.48,-14.7456 38.2976,-33.3824 52.4288,-54.4768 -18.8416,8.3968 -39.1168,13.9264 -60.416,16.5888 C 473.088,97.6896 489.6768,77.0048 497.664,52.4288 477.3888,64.512 454.8608,73.1136 430.8992,77.824 411.648,57.344 384.4096,44.6464 354.304,44.6464 c -57.9584,0 -105.0624,47.104 -105.0624,105.0624 0,8.192 1.024,16.1792 2.6624,23.9616 C 164.6592,169.3696 87.2448,127.3856 35.4304,63.8976 26.4192,79.4624 21.2992,97.4848 21.2992,116.736 c 0,36.4544 18.6368,68.608 46.6944,87.4496 -17.2032,-0.6144 -33.3824,-5.3248 -47.5136,-13.1072 0,0.4096 0,0.8192 0,1.4336 0,50.7904 36.2496,93.3888 84.1728,103.0144 -8.8064,2.4576 -18.0224,3.6864 -27.648,3.6864 -6.7584,0 -13.312,-0.6144 -19.6608,-1.8432 13.312,41.7792 52.224,72.0896 98.0992,72.9088 -36.0448,28.2624 -81.3056,45.056 -130.4576,45.056 C 16.5888,415.3344 8.192,414.9248 0,413.9008 46.2848,443.392 101.5808,460.8 160.768,460.8"/></g></svg>